<svg id="Capa_1" enable-background="new 0 0 497 497" height="512" viewBox="0 0 497 497" width="512" xmlns="http://www.w3.org/2000/svg"><g><g fill="#ff748f"><path d="m158.633 496.938c-32.275-1.287-59.3-25.347-64.098-57.55l-32.46-218.175h68.854l41.943 137.894z"/><path d="m289.31 221.213 34.818 137.863-41.942 137.924h-67.372l-41.942-137.894 34.818-137.893z"/><path d="m434.925 221.213-32.461 218.175c-4.798 32.203-31.822 56.263-64.098 57.55l-14.238-137.863 41.943-137.863h68.854z"/></g><path d="m433.958 196.261c5.408-28.728-12.332-56.743-40.613-64.137l-.187-.049-.86-2.777c-8.304-26.806-35.267-43.235-62.897-38.325l-2.976.529-2.737-3.324c-17.474-21.225-47.829-26.509-71.447-12.438l-3.741 2.229-3.741-2.229c-23.619-14.071-53.974-8.786-71.448 12.439l-2.735 3.323-2.976-.529c-27.63-4.911-54.593 11.519-62.897 38.324l-.86 2.777-.187.049c-28.281 7.394-46.021 35.409-40.614 64.137v.001z" fill="#fbf4ad"/><g><g><path d="m176.19 149.443c-4.142 0-7.5-3.358-7.5-7.5v-13.895c0-4.142 3.358-7.5 7.5-7.5s7.5 3.358 7.5 7.5v13.895c0 4.142-3.358 7.5-7.5 7.5z" fill="#423e4f"/></g><g><path d="m320.81 149.443c-4.142 0-7.5-3.358-7.5-7.5v-13.895c0-4.142 3.358-7.5 7.5-7.5s7.5 3.358 7.5 7.5v13.895c0 4.142-3.358 7.5-7.5 7.5z" fill="#423e4f"/></g><g><path d="m223.782 146.457c-2.722-3.123-2.396-7.86.726-10.582 3.122-2.721 7.86-2.396 10.582.726 7.089 8.134 19.711 8.159 26.82 0 2.721-3.124 7.459-3.448 10.582-.727s3.448 7.459.727 10.582c-13.056 14.982-36.344 15.025-49.437.001z" fill="#423e4f"/></g></g><path d="m127.757 18.991c-1.933-1.969-3.334-4.396-4.072-7.054l-.001-.004c-2.375-8.557-11.168-13.633-19.766-11.411l-.003.001c-2.673.691-5.477.691-8.15 0l-.003-.001c-8.598-2.222-17.391 2.854-19.766 11.411l-.001.004c-.738 2.658-2.139 5.086-4.072 7.054-6.22 6.334-6.22 16.484 0 22.818 1.933 1.968 3.334 4.396 4.072 7.054l.001.004c2.375 8.557 11.168 13.634 19.766 11.411l.003-.001c2.673-.691 5.477-.691 8.15 0l.003.001c8.598 2.222 17.391-2.854 19.766-11.411l.001-.004c.738-2.658 2.139-5.086 4.072-7.054 6.22-6.334 6.22-16.483 0-22.818z" fill="#f8e86a"/><path d="m406.817 65.646c-1.933-1.969-3.334-4.396-4.072-7.054l-.001-.004c-2.375-8.557-11.168-13.634-19.766-11.411l-.003.001c-2.673.691-5.477.691-8.15 0l-.003-.001c-8.598-2.222-17.391 2.854-19.766 11.411l-.001.004c-.738 2.658-2.139 5.086-4.072 7.054-6.22 6.334-6.22 16.484 0 22.818 1.933 1.968 3.334 4.396 4.072 7.054l.001.004c2.375 8.557 11.168 13.634 19.766 11.411l.003-.001c2.673-.691 5.477-.691 8.15 0l.003.001c8.598 2.222 17.391-2.854 19.766-11.411l.001-.004c.738-2.658 2.139-5.086 4.072-7.054 6.22-6.335 6.22-16.484 0-22.818z" fill="#f8e86a"/><path d="m201.79 454.181 13.024 42.819h50.772c-23.286-10.746-44.756-25.259-63.796-42.819z" fill="#fd5f7e"/><path d="m113.171 245.906c0-8.326.361-16.558 1.03-24.693h-52.126l32.461 218.175c4.798 32.203 31.823 56.263 64.098 57.55l8.453-81.832c-33.75-46.476-53.916-105.262-53.916-169.2z" fill="#fd5f7e"/><path d="m214.814 497h-53.453c-.916 0-1.822-.021-2.728-.062l-27.704-275.725h76.761z" fill="#f8d070"/><path d="m366.071 221.213-27.704 275.725c-.906.041-1.812.062-2.728.062h-53.453l7.124-275.787z" fill="#f8d070"/><path d="m157.95 90.119c-24.038-.055-45.916 15.512-53.248 39.178l-.86 2.777-.187.049c-28.281 7.394-46.021 35.409-40.614 64.136v.001h54.273c6.557-38.906 20.679-74.911 40.636-106.141z" fill="#f8e86a"/><path d="m419.337 184.142h-341.674c-20.475 0-37.074 16.598-37.074 37.074 0 20.475 16.598 37.074 37.074 37.074h341.674c20.475 0 37.074-16.598 37.074-37.074 0-20.476-16.599-37.074-37.074-37.074z" fill="#dedede"/><path d="m147.226 383.401 11.408 113.537c.906.041 1.812.062 2.728.062h53.453l-.833-32.253c-26.952-21.876-49.714-49.556-66.756-81.346z" fill="#fbc072"/><path d="m113.171 245.906c0-21.244 2.228-41.919 6.438-61.765h-41.946c-20.475 0-37.074 16.598-37.074 37.073 0 20.475 16.598 37.074 37.074 37.074h35.776c-.168-4.105-.268-8.231-.268-12.382z" fill="#d0d0ce"/></g></svg>