<svg xmlns="http://www.w3.org/2000/svg" height="609pt" version="1.1" viewBox="0 0 609 609.46503" width="609pt">
<defs>
<linearGradient gradientTransform="matrix(0.999237,0,0,-0.999237,0.232515,607.036299)" gradientUnits="userSpaceOnUse" id="linear0" x1="107.2106" x2="502.1615" y1="105.2455" y2="500.1964">
<stop offset="0" style="stop-color:rgb(100%,60%,70.980392%);stop-opacity:1;" />
<stop offset="1" style="stop-color:rgb(100%,86.27451%,40.784314%);stop-opacity:1;" />
</linearGradient>
</defs>
<g id="surface1">
<path d="M 304.730469 558.25 L 609.230469 558.25 L 609.230469 609 L 304.730469 609 Z M 304.730469 558.25 " style=" stroke:none;fill-rule:nonzero;fill:rgb(100%,86.27451%,40.784314%);fill-opacity:1;" />
<path d="M 304.730469 0 C 136.5625 0 0.234375 136.328125 0.234375 304.5 C 0.234375 472.671875 136.5625 609 304.730469 609 C 472.902344 609 609.230469 472.671875 609.230469 304.5 C 609.042969 136.40625 472.824219 0.191406 304.730469 0 Z M 304.730469 558.25 C 164.589844 558.25 50.980469 444.640625 50.980469 304.5 C 50.980469 164.355469 164.589844 50.75 304.730469 50.75 C 444.875 50.75 558.480469 164.359375 558.480469 304.5 C 558.324219 444.578125 444.808594 558.089844 304.730469 558.25 Z M 304.730469 558.25 " style=" stroke:none;fill-rule:nonzero;fill:rgb(100%,94.901961%,77.647059%);fill-opacity:1;" />
<path d="M 304.730469 25.375 C 150.574219 25.375 25.605469 150.34375 25.605469 304.5 C 25.605469 458.65625 150.574219 583.625 304.730469 583.625 C 458.886719 583.625 583.855469 458.65625 583.855469 304.5 C 583.683594 150.417969 458.816406 25.550781 304.730469 25.375 Z M 99.601562 237.847656 C 110.425781 204.523438 146.210938 186.285156 179.535156 197.113281 C 212.855469 207.933594 231.09375 243.722656 220.269531 277.042969 C 209.445312 310.367188 173.65625 328.605469 140.335938 317.78125 C 140.332031 317.777344 140.332031 317.777344 140.332031 317.777344 C 107.042969 306.914062 88.824219 271.160156 99.601562 237.847656 Z M 266.5625 464.953125 C 245.96875 493.296875 206.296875 499.578125 177.953125 478.980469 C 149.609375 458.386719 143.328125 418.714844 163.921875 390.371094 C 184.519531 362.027344 224.191406 355.746094 252.53125 376.339844 C 266.140625 386.230469 275.265625 401.121094 277.898438 417.734375 C 280.539062 434.355469 276.460938 451.347656 266.566406 464.957031 Z M 241.296875 152.25 C 241.296875 117.214844 269.699219 88.8125 304.734375 88.8125 C 339.769531 88.8125 368.171875 117.214844 368.171875 152.25 C 368.171875 187.285156 339.769531 215.6875 304.734375 215.6875 C 269.714844 215.648438 241.335938 187.269531 241.296875 152.25 Z M 431.511719 478.996094 C 403.167969 499.589844 363.496094 493.304688 342.902344 464.957031 C 322.3125 436.613281 328.597656 396.941406 356.941406 376.351562 C 385.285156 355.757812 424.953125 362.042969 445.546875 390.382812 C 466.097656 418.742188 459.820312 458.382812 431.511719 478.996094 Z M 469.132812 317.789062 C 435.8125 328.613281 400.023438 310.378906 389.199219 277.058594 C 378.371094 243.738281 396.605469 207.949219 429.925781 197.125 C 463.246094 186.296875 499.035156 204.53125 509.863281 237.851562 C 509.863281 237.851562 509.863281 237.855469 509.863281 237.855469 C 520.6875 271.175781 502.453125 306.960938 469.132812 317.789062 Z M 469.132812 317.789062 " style=" stroke:none;fill-rule:nonzero;fill:url(#linear0);" />
<path d="M 355.480469 304.5 C 355.480469 332.527344 332.761719 355.25 304.730469 355.25 C 276.703125 355.25 253.980469 332.527344 253.980469 304.5 C 253.980469 276.472656 276.703125 253.75 304.730469 253.75 C 332.761719 253.75 355.480469 276.472656 355.480469 304.5 Z M 355.480469 304.5 " style=" stroke:none;fill-rule:nonzero;fill:rgb(100%,86.27451%,40.784314%);fill-opacity:1;" />
</g>
</svg>